<svg width="21" height="21" viewBox="0 0 21 21" fill="none" xmlns="http://www.w3.org/2000/svg">
<path d="M13.6311 17.5962C14.165 17.5962 14.4814 17.2205 14.4814 16.6338V15.0188H14.7451C16.6501 15.0188 17.7971 13.8784 17.7971 11.9141V6.79224C17.7971 4.83447 16.6831 3.6875 14.699 3.6875H6.29443C4.31689 3.6875 3.19629 4.83447 3.19629 6.79224V11.9141C3.19629 13.8718 4.31689 15.0188 6.29443 15.0188H10.2627L12.5237 17.0095C12.9785 17.4116 13.2554 17.5962 13.6311 17.5962ZM13.3081 16.1196L11.2185 14.0564C10.9351 13.7664 10.7439 13.7004 10.3418 13.7004H6.34058C5.10791 13.7004 4.50806 13.0742 4.50806 11.8745V6.83179C4.50806 5.63208 5.10791 5.00586 6.34058 5.00586H14.6594C15.8987 5.00586 16.4854 5.63208 16.4854 6.83179V11.8745C16.4854 13.0742 15.8987 13.7004 14.6594 13.7004H13.8486C13.4729 13.7004 13.3081 13.8521 13.3081 14.241V16.1196Z" fill="#717171"/>
</svg>
