<svg width="14" height="14" viewBox="0 0 14 14" fill="none" xmlns="http://www.w3.org/2000/svg">
<path d="M0.331288 12.0052C-0.101821 12.4381 -0.122445 13.2113 0.3416 13.6546C0.785021 14.1186 1.56874 14.0979 2.00185 13.6649L7.00323 8.66495L12.0046 13.6649C12.448 14.1082 13.2111 14.1186 13.6545 13.6546C14.1186 13.2113 14.1083 12.4381 13.6649 11.9948L8.66348 6.99485L13.6649 2.00515C14.1083 1.55155 14.1186 0.78866 13.6545 0.345361C13.2111 -0.118557 12.448 -0.108247 12.0046 0.335052L7.00323 5.33505L2.00185 0.335052C1.56874 -0.0979382 0.785021 -0.118557 0.3416 0.345361C-0.122445 0.78866 -0.101821 1.56186 0.331288 1.99485L5.33267 6.99485L0.331288 12.0052Z" fill="#C0C0C0"/>
</svg>
