<svg width="16" height="16" viewBox="0 0 16 16" fill="none" xmlns="http://www.w3.org/2000/svg">
<path d="M7.89443 15.7889C12.2234 15.7889 15.7965 12.2158 15.7965 7.89443C15.7965 3.57311 12.2158 0 7.8868 0C3.56547 0 0 3.57311 0 7.89443C0 12.2158 3.57311 15.7889 7.89443 15.7889ZM5.58871 7.14622C5.11535 7.14622 4.72597 6.7263 4.72597 6.14605C4.72597 5.55053 5.11535 5.13825 5.58871 5.13825C6.05443 5.13825 6.45144 5.55053 6.45144 6.14605C6.45144 6.7263 6.05443 7.14622 5.58871 7.14622ZM10.2307 7.14622C9.75733 7.14622 9.37559 6.7263 9.37559 6.14605C9.37559 5.55053 9.75733 5.13825 10.2307 5.13825C10.6964 5.13825 11.1011 5.55053 11.1011 6.14605C11.1011 6.7263 10.6964 7.14622 10.2307 7.14622ZM5.09244 10.1391C5.09244 9.9482 5.28331 9.85659 5.46655 9.94057C6.0468 10.246 6.7263 10.5972 7.8868 10.5972C9.05493 10.5972 9.73443 10.2383 10.3147 9.94057C10.4903 9.85659 10.6888 9.9482 10.6888 10.1391C10.6888 10.6735 9.56646 11.7882 7.8868 11.7882C6.21476 11.7882 5.09244 10.6735 5.09244 10.1391Z" fill="#2160FF"/>
</svg>
