<svg width="16" height="16" viewBox="0 0 16 16" fill="none" xmlns="http://www.w3.org/2000/svg">
<path d="M7.89443 15.7889C12.2234 15.7889 15.7965 12.2158 15.7965 7.89443C15.7965 3.57311 12.2158 0 7.8868 0C3.56547 0 0 3.57311 0 7.89443C0 12.2158 3.57311 15.7889 7.89443 15.7889ZM7.89443 14.2161C4.39004 14.2161 1.58805 11.3988 1.58805 7.89443C1.58805 4.39004 4.39004 1.58041 7.8868 1.58041C11.3912 1.58041 14.2084 4.39004 14.2161 7.89443C14.2237 11.3988 11.3988 14.2161 7.89443 14.2161ZM5.68033 7.19202C6.13078 7.19202 6.51252 6.79501 6.51252 6.23767C6.51252 5.68033 6.13078 5.28331 5.68033 5.28331C5.2375 5.28331 4.8634 5.68033 4.8634 6.23767C4.8634 6.79501 5.2375 7.19202 5.68033 7.19202ZM10.1314 7.19202C10.5819 7.19202 10.9636 6.79501 10.9636 6.23767C10.9636 5.68033 10.5819 5.28331 10.1314 5.28331C9.68098 5.28331 9.31451 5.68033 9.31451 6.23767C9.31451 6.79501 9.68098 7.19202 10.1314 7.19202ZM5.2146 10.0704C5.2146 10.5819 6.29111 11.6431 7.8868 11.6431C9.49011 11.6431 10.5666 10.5819 10.5666 10.0704C10.5666 9.88713 10.3834 9.79551 10.2154 9.87949C9.65808 10.1696 9.00148 10.5132 7.8868 10.5132C6.77974 10.5132 6.12315 10.1696 5.5658 9.87949C5.39784 9.79551 5.2146 9.88713 5.2146 10.0704Z" fill="#808080"/>
</svg>
