<svg width="24" height="24" viewBox="0 0 24 24" fill="none" xmlns="http://www.w3.org/2000/svg">
<path d="M11.9942 24C18.5713 24 24 18.5687 24 12C24 5.43133 18.5597 0 11.9826 0C5.41711 0 0 5.43133 0 12C0 18.5687 5.42871 24 11.9942 24ZM18.2233 11.9884C18.2233 12.3366 18.0957 12.6035 17.8173 12.8704L13.7226 16.8975C13.5138 17.0948 13.2818 17.1992 12.9802 17.1992C12.4118 17.1992 12.0058 16.7698 12.0058 16.1896C12.0058 15.8994 12.1218 15.6325 12.319 15.4468L13.7806 14.0542L15.1261 12.9749L12.6554 13.0909H6.79749C6.1711 13.0909 5.7303 12.6267 5.7303 12C5.7303 11.3617 6.1827 10.8975 6.79749 10.8975H12.6554L15.1261 11.0135L13.769 9.93424L12.319 8.54159C12.1334 8.3559 12.0058 8.08897 12.0058 7.79884C12.0058 7.21857 12.4118 6.80077 12.9802 6.80077C13.2818 6.80077 13.5138 6.88201 13.7226 7.09091L17.8173 11.1296C18.1073 11.3965 18.2233 11.6634 18.2233 11.9884Z" fill="#2160FF"/>
</svg>
