<svg width="17" height="4" viewBox="0 0 17 4" fill="none" xmlns="http://www.w3.org/2000/svg">
<path d="M4.00791 1.99331C4.00791 3.10368 3.12025 4 2.0174 4C0.901107 4 0 3.10368 0 1.99331C0 0.896321 0.901107 0 2.0174 0C3.12025 0 4.00791 0.896321 4.00791 1.99331Z" fill="#808080"/>
<path d="M10.504 1.99331C10.504 3.10368 9.60285 4 8.5 4C7.39715 4 6.49604 3.10368 6.49604 1.99331C6.49604 0.896321 7.39715 0 8.5 0C9.60285 0 10.504 0.896321 10.504 1.99331Z" fill="#808080"/>
<path d="M17 1.99331C17 3.10368 16.0989 4 14.996 4C13.8932 4 12.9921 3.10368 12.9921 1.99331C12.9921 0.896321 13.8932 0 14.996 0C16.0989 0 17 0.896321 17 1.99331Z" fill="#808080"/>
</svg>
