<svg width="21" height="21" viewBox="0 0 21 21" fill="none" xmlns="http://www.w3.org/2000/svg">
<path d="M3.82251 8.3894C3.82251 11.2041 6.18896 13.9858 9.86719 16.3589C10.0715 16.4907 10.322 16.6226 10.4934 16.6226C10.6648 16.6226 10.9153 16.4907 11.1196 16.3589C14.8044 13.9858 17.1643 11.2041 17.1643 8.3894C17.1643 5.95703 15.4834 4.26953 13.3279 4.26953C12.0688 4.26953 11.0867 4.84302 10.4934 5.71313C9.91333 4.84961 8.92456 4.26953 7.66553 4.26953C5.50342 4.26953 3.82251 5.95703 3.82251 8.3894ZM5.18042 8.38281C5.18042 6.72168 6.27466 5.59448 7.74463 5.59448C8.93115 5.59448 9.59692 6.31299 10.0122 6.93921C10.1968 7.20947 10.322 7.29517 10.4934 7.29517C10.6714 7.29517 10.7834 7.20288 10.9746 6.93921C11.4229 6.32617 12.0623 5.59448 13.2422 5.59448C14.7188 5.59448 15.813 6.72168 15.813 8.38281C15.813 10.7031 13.4004 13.2739 10.6187 15.1196C10.5593 15.1592 10.5198 15.1855 10.4934 15.1855C10.467 15.1855 10.4275 15.1592 10.3748 15.1196C7.59302 13.2739 5.18042 10.7031 5.18042 8.38281Z" fill="#717171"/>
</svg>
